<?xml version="1.0" encoding="UTF-8"?><svg id="Layer_1" xmlns="http://www.w3.org/2000/svg" viewBox="0 0 32 20"><defs><style>.cls-1{fill:#bfbfbf;}.cls-2{fill:#3866de;}</style></defs><path class="cls-1" d="m5.66,1h10.3s.05.02.07.04l5.16,8.93s.01.05,0,.08l-2.45,4.25-2.5-4.32s0,0,0-.01h0s-2.67-4.63-2.67-4.63c-.01-.02-.04-.04-.06-.04h0s-5.34,0-5.34,0c-.03,0-.05.01-.06.03h0s-2.67,4.62-2.67,4.62c-.01.02-.01.05,0,.07h0s2.67,4.63,2.67,4.63c.01.02.04.04.06.04h0s4.76,0,4.76,0l2.49,4.31H5.66s-.05-.02-.07-.04L.44,10.03s-.01-.05,0-.08L5.59,1.04s.04-.04.07-.04Z"/><path class="cls-2" d="m26.34,19h-10.3s-.05-.02-.07-.04l-5.16-8.93s-.01-.05,0-.08l2.45-4.25,2.5,4.32s0,0,0,.01h0s2.67,4.63,2.67,4.63c.01.02.04.04.06.04h0s5.34,0,5.34,0c.03,0,.05-.01.06-.03h0s2.67-4.62,2.67-4.62c.01-.02.01-.05,0-.07h0s-2.67-4.63-2.67-4.63c-.01-.02-.04-.04-.06-.04h-4.76s-2.49-4.31-2.49-4.31h9.74s.05.02.07.04l5.16,8.93s.01.05,0,.08l-5.15,8.92s-.04.04-.07.04Z"/></svg>