<?xml version="1.0" encoding="utf-8"?>
<!-- Generator: Adobe Illustrator 27.7.0, SVG Export Plug-In . SVG Version: 6.00 Build 0)  -->
<svg version="1.1" id="Layer_1" xmlns="http://www.w3.org/2000/svg" xmlns:xlink="http://www.w3.org/1999/xlink" x="0px" y="0px"
	 viewBox="0 0 32 20" style="enable-background:new 0 0 32 20;" xml:space="preserve">
<style type="text/css">
	.st0{fill:#FFFFFF;}
</style>
<g>
	<path class="st0" d="M5.7,1L16,1C16,1,16,1,16,1l5.2,8.9c0,0,0,0.1,0,0.1l-2.5,4.3L16.2,10c0,0,0,0,0,0l0,0l-2.7-4.6c0,0,0,0-0.1,0
		l0,0l-5.3,0c0,0,0,0-0.1,0l0,0L5.4,10c0,0,0,0,0,0.1l0,0l2.7,4.6c0,0,0,0,0.1,0l0,0l4.8,0l2.5,4.3l-9.7,0c0,0-0.1,0-0.1,0L0.4,10
		c0,0,0-0.1,0-0.1L5.7,1C5.6,1,5.6,1,5.7,1z"/>
	<path class="st0" d="M26.3,19L16,19c0,0-0.1,0-0.1,0L10.8,10c0,0,0-0.1,0-0.1l2.5-4.3l2.5,4.3c0,0,0,0,0,0l0,0l2.7,4.6
		c0,0,0,0,0.1,0l0,0l5.3,0c0,0,0,0,0.1,0l0,0l2.7-4.6c0,0,0,0,0-0.1l0,0l-2.7-4.6c0,0,0,0-0.1,0h0l-4.8,0L16.6,1l9.7,0
		c0,0,0.1,0,0.1,0l5.2,8.9c0,0,0,0.1,0,0.1L26.3,19C26.4,19,26.4,19,26.3,19z"/>
</g>
</svg>
